<svg xmlns="http://www.w3.org/2000/svg" width="256" height="256" viewBox="0 0 100 100"><rect width="100" height="100" rx="20" fill="#240eb3"></rect><path d="M30.99 40.10L30.99 44.20L29.74 44.20L29.74 55.45L30.99 55.45L30.99 59.55L21.54 59.55L21.54 55.45L22.74 55.45L22.74 46.70L18.49 59.55L14.79 59.55L10.41 46.83L10.41 55.45L11.61 55.45L11.61 59.55L3.41 59.55L3.41 55.45L4.66 55.45L4.66 44.20L3.41 44.20L3.41 40.10L14.86 40.10L17.46 47.90L19.96 40.10L30.99 40.10ZM39.39 59.90Q35.84 59.90 33.84 58.04Q31.84 56.18 31.84 52.60L31.84 52.60Q31.84 49.03 33.84 47.16Q35.84 45.30 39.39 45.30L39.39 45.30Q42.99 45.30 44.96 47.19Q46.94 49.08 46.94 52.60L46.94 52.60Q46.94 56.18 44.94 58.04Q42.94 59.90 39.39 59.90L39.39 59.90ZM39.39 55.45Q40.11 55.45 40.47 55.06Q40.84 54.68 40.84 53.85L40.84 53.85L40.84 51.35Q40.84 50.53 40.47 50.14Q40.11 49.75 39.39 49.75L39.39 49.75Q38.66 49.75 38.30 50.14Q37.94 50.53 37.94 51.35L37.94 51.35L37.94 53.85Q37.94 54.68 38.30 55.06Q38.66 55.45 39.39 55.45L39.39 55.45ZM63.24 55.45L64.34 55.45L64.34 59.55L56.44 59.55L56.44 55.45L57.49 55.45L57.49 51.35Q57.49 50.53 57.14 50.14Q56.79 49.75 56.09 49.75L56.09 49.75Q54.59 49.75 54.59 51.35L54.59 51.35L54.59 55.45L55.64 55.45L55.64 59.55L47.74 59.55L47.74 55.45L48.84 55.45L48.84 49.75L47.74 49.75L47.74 45.65L54.59 45.65L54.59 47.60Q56.39 45.30 59.09 45.30L59.09 45.30Q61.16 45.30 62.20 46.60Q63.24 47.90 63.24 50.18L63.24 50.18L63.24 55.45ZM70.06 59.90Q67.51 59.90 66.22 58.00Q64.94 56.10 64.94 52.60L64.94 52.60Q64.94 49.10 66.22 47.20Q67.51 45.30 70.06 45.30L70.06 45.30Q71.34 45.30 72.33 45.93Q73.31 46.55 73.94 47.35L73.94 47.35L73.94 44.20L72.46 44.20L72.46 40.10L79.69 40.10L79.69 55.45L80.79 55.45L80.79 59.55L73.94 59.55L73.94 57.85Q73.31 58.65 72.33 59.28Q71.34 59.90 70.06 59.90L70.06 59.90ZM72.49 55.45Q73.21 55.45 73.58 55.06Q73.94 54.68 73.94 53.85L73.94 53.85L73.94 51.35Q73.94 50.53 73.58 50.14Q73.21 49.75 72.49 49.75L72.49 49.75Q71.76 49.75 71.40 50.14Q71.04 50.53 71.04 51.35L71.04 51.35L71.04 53.85Q71.04 54.68 71.40 55.06Q71.76 55.45 72.49 55.45L72.49 55.45ZM89.04 59.90Q85.49 59.90 83.49 58.04Q81.49 56.18 81.49 52.60L81.49 52.60Q81.49 49.03 83.49 47.16Q85.49 45.30 89.04 45.30L89.04 45.30Q92.64 45.30 94.61 47.19Q96.59 49.08 96.59 52.60L96.59 52.60Q96.59 56.18 94.59 58.04Q92.59 59.90 89.04 59.90L89.04 59.90ZM89.04 55.45Q89.76 55.45 90.13 55.06Q90.49 54.68 90.49 53.85L90.49 53.85L90.49 51.35Q90.49 50.53 90.13 50.14Q89.76 49.75 89.04 49.75L89.04 49.75Q88.31 49.75 87.95 50.14Q87.59 50.53 87.59 51.35L87.59 51.35L87.59 53.85Q87.59 54.68 87.95 55.06Q88.31 55.45 89.04 55.45L89.04 55.45Z" fill="#fbfbfb"></path></svg>